{"title":"Arn Duology DVDRip [H.264 - MP4 - AAC] ~ Mindbreaker","uid":5453937,"size":4046369023,"categoryP":"video","categoryS":"movies","magnet":"?xt=urn:btih:95794a277b24d2daa9f6bfcbf82b65a893b3c47f&amp;dn=Arn+Duology+DVDRip+%5BH.264+-+MP4+-+AAC%5D+%7E+Mindbreaker&amp;tr=udp%3A%2F%2Ftracker.openbittorrent.com%3A80&amp;tr=udp%3A%2F%2Fopen.demonii.com%3A1337&amp;tr=udp%3A%2F%2Ftracker.coppersurfer.tk%3A6969&amp;tr=udp%3A%2F%2Fexodus.desync.com%3A6969","seeders":0,"leechers":0,"uploader":"mindbreaker3103","files":-1,"time":1269269897,"description":"////////////////////////////////////////////////////////\n// Arn - Tempelriddaren\n// imdb : http://www.imdb.com/title/tt0837106/\n////////////////////////////////////////////////////////\n\nGeneral\nComplete name : Arn - Tempelriddaren 2007 DVDRip [H.264 - MP4 - AAC] ~ Mindbreaker\nFormat : H.264/AAC/MP4 - Anamophic\nSource : DVD (MoA)\nFile size : 1.96 GiB\nDuration : 2h 12mn\nOverall bit rate : 2 114 Kbps\n\n\nVideo\nID : 1\nFormat : AVC\nFormat/Info : Advanced Video Codec\nFormat profile : &lt;a class=&quot;__cf_email__&quot; href=&quot;/cdn-cgi/l/email-protection&quot; data-cfemail=&quot;ce86a7a9a68e82fde0fe&quot;&gt;[email&amp;#160;protected]&lt;/a&gt;&lt;script cf-hash='f9e31' type=&quot;text/javascript&quot;&gt;\n/* &lt;![CDATA[ */!function(){try{var t=&quot;currentScript&quot;in document?document.currentScript:function(){for(var t=document.getElementsByTagName(&quot;script&quot;),e=t.length;e--;)if(t[e].getAttribute(&quot;cf-hash&quot;))return t[e]}();if(t&amp;&amp;t.previousSibling){var e,r,n,i,c=t.previousSibling,a=c.getAttribute(&quot;data-cfemail&quot;);if(a){for(e=&quot;&quot;,r=parseInt(a.substr(0,2),16),n=2;a.length-n;n+=2)i=parseInt(a.substr(n,2),16)^r,e+=String.fromCharCode(i);e=document.createTextNode(e),c.parentNode.replaceChild(e,c)}}}catch(u){}}();/* ]]&gt; */&lt;/script&gt;\nDuration : 2h 12mn\nBit rate : 1 950 Kbps\nWidth : 720 pixels\nHeight : 438 pixels\nDisplay aspect ratio : 2.35:1\nFrame rate : 25.000 fps\nBits/(Pixel*Frame) : 0.247\nStream size : 1.81 GiB (92%)\nWriting library : x264 core 79\n\nAudio\nID : 2\nFormat : AAC\nFormat/Info : Advanced Audio Codec\nFormat profile : LC\nDuration : 2h 12mn\nBit rate : 160 Kbps\nChannel(s) : 2 channels\nSampling rate : 48.0 KHz\nStream size : 152 MiB (8%)\nLanguage : Swedish \n\nSubtitle\nFormat : SubRip\nLanguage : English\nSource : opensubtitles.org\n &lt;a href=&quot;\nhttp://genesis.1337x.org:1337/announce&quot; rel=&quot;nofollow&quot; target=&quot;_NEW&quot;&gt;\nhttp://genesis.1337x.org:1337/announce&lt;/a&gt; &lt;a href=&quot;\nhttp://tracker.openbittorrent.com/announce&quot; rel=&quot;nofollow&quot; target=&quot;_NEW&quot;&gt;\nhttp://tracker.openbittorrent.com/announce&lt;/a&gt; &lt;a href=&quot;\nhttp://trackedbyet.info:420/announce&quot; rel=&quot;nofollow&quot; target=&quot;_NEW&quot;&gt;\nhttp://trackedbyet.info:420/announce&lt;/a&gt;\n\n////////////////////////////////////////////////////////\n// Arn - Riket vid vÃƒÂ¤gens slut\n// imdb : http://www.imdb.com/title/tt0950739/\n////////////////////////////////////////////////////////\nGeneral\nComplete name : Arn - Riket vid vÃƒÂ¤gens slut 2008 DVDRip [H.264 - MP4 - AAC] ~ Mindbreaker\nFormat : H.264/AAC/MP4 - Anamophic\nSource : DVD (SVENNE)\nFile size : 1.81 GiB\nDuration : 2h 2mn\nOverall bit rate : 2 11 Kbps\n\n\nVideo\nID : 1\nFormat : AVC\nFormat/Info : Advanced Video Codec\nFormat profile : &lt;a class=&quot;__cf_email__&quot; href=&quot;/cdn-cgi/l/email-protection&quot; data-cfemail=&quot;7038191718303c435e40&quot;&gt;[email&amp;#160;protected]&lt;/a&gt;&lt;script cf-hash='f9e31' type=&quot;text/javascript&quot;&gt;\n/* &lt;![CDATA[ */!function(){try{var t=&quot;currentScript&quot;in document?document.currentScript:function(){for(var t=document.getElementsByTagName(&quot;script&quot;),e=t.length;e--;)if(t[e].getAttribute(&quot;cf-hash&quot;))return t[e]}();if(t&amp;&amp;t.previousSibling){var e,r,n,i,c=t.previousSibling,a=c.getAttribute(&quot;data-cfemail&quot;);if(a){for(e=&quot;&quot;,r=parseInt(a.substr(0,2),16),n=2;a.length-n;n+=2)i=parseInt(a.substr(n,2),16)^r,e+=String.fromCharCode(i);e=document.createTextNode(e),c.parentNode.replaceChild(e,c)}}}catch(u){}}();/* ]]&gt; */&lt;/script&gt;\nDuration : 2h 3mn\nBit rate : 1 947 Kbps\nWidth : 720 pixels\nHeight : 436 pixels\nDisplay aspect ratio : 2.35:1\nFrame rate : 25.000 fps\nBits/(Pixel*Frame) : 0.248\nStream size : 1.67 GiB (92%)\nWriting library : x264 core 65\n\nAudio\nID : 2\nFormat : AAC\nFormat/Info : Advanced Audio Codec\nFormat profile : LC\nDuration : 2h 2mn\nBit rate : 160 Kbps\nChannel(s) : 2 channels\nSampling rate : 48.0 KHz\nStream size : 140 MiB (8%)\nLanguage : Swedish \n\nSubtitle\nFormat : SubRip\nLanguage : English\nSource : opensubtitles.org\n &lt;a href=&quot;\nhttp://genesis.1337x.org:1337/announce&quot; rel=&quot;nofollow&quot; target=&quot;_NEW&quot;&gt;\nhttp://genesis.1337x.org:1337/announce&lt;/a&gt; &lt;a href=&quot;\nhttp://tracker.openbittorrent.com/announce&quot; rel=&quot;nofollow&quot; target=&quot;_NEW&quot;&gt;\nhttp://tracker.openbittorrent.com/announce&lt;/a&gt; &lt;a href=&quot;\nhttp://trackedbyet.info:420/announce&quot; rel=&quot;nofollow&quot; target=&quot;_NEW&quot;&gt;\nhttp://trackedbyet.info:420/announce&lt;/a&gt;\n\nScreens : \n","torrent":{"xt":"urn:btih:95794a277b24d2daa9f6bfcbf82b65a893b3c47f","amp;dn":"Arn+Duology+DVDRip+%5BH.264+-+MP4+-+AAC%5D+%7E+Mindbreaker","amp;tr":["udp%3A%2F%2Ftracker.openbittorrent.com%3A80","udp%3A%2F%2Fopen.demonii.com%3A1337","udp%3A%2F%2Ftracker.coppersurfer.tk%3A6969","udp%3A%2F%2Fexodus.desync.com%3A6969"],"infoHash":"95794a277b24d2daa9f6bfcbf82b65a893b3c47f","infoHashBuffer":{"type":"Buffer","data":[149,121,74,39,123,36,210,218,169,246,191,203,248,43,101,168,147,179,196,127]},"announce":[],"urlList":[]}}